HIERARCHY
ROOT Hips
{
	OFFSET 0.000000 0.000000 0.000000
	CHANNELS 6 Xposition Yposition Zposition Zrotation Yrotation Xrotation 
	JOINT LHipJoint
	{
		OFFSET 0.000000 0.000000 0.000000
		CHANNELS 3 Zrotation Yrotation Xrotation
		JOINT LeftUpLeg
		{
			OFFSET 1.363060 -1.794630 0.839290
			CHANNELS 3 Zrotation Yrotation Xrotation
			JOINT LeftLeg
			{
				OFFSET 2.448110 -6.726130 0.000000
				CHANNELS 3 Zrotation Yrotation Xrotation
				JOINT LeftFoot
				{
					OFFSET 2.562200 -7.039590 0.000000
					CHANNELS 3 Zrotation Yrotation Xrotation
					JOINT LeftToeBase
					{
						OFFSET 0.157640 -0.433110 2.322550
						CHANNELS 3 Zrotation Yrotation Xrotation
						End Site
						{
							OFFSET 0.000000 0.000000 0.000000
						}
					}
				}
			}
		}
	}
	JOINT RHipJoint
	{
		OFFSET 0.000000 0.000000 0.000000
		CHANNELS 3 Zrotation Yrotation Xrotation
		JOINT RightUpLeg
		{
			OFFSET -1.305520 -1.794630 0.839290
			CHANNELS 3 Zrotation Yrotation Xrotation
			JOINT RightLeg
			{
				OFFSET -2.542530 -6.985550 0.000000
				CHANNELS 3 Zrotation Yrotation Xrotation
				JOINT RightFoot
				{
					OFFSET -2.568260 -7.056230 0.000000
					CHANNELS 3 Zrotation Yrotation Xrotation
					JOINT RightToeBase
					{
						OFFSET -0.164730 -0.452590 2.363150
						CHANNELS 3 Zrotation Yrotation Xrotation
						End Site
						{
							OFFSET 0.000000 0.000000 0.000000
						}
					}
				}
			}
		}
	}
}
MOTION
Frames: 22
Frame Time: 0.008333
-2.072370 16.697667 -2.363459 -158.982617 78.603118 -152.520139 -13.071162 4.560038 -0.258972 -6.072985 5.508414 -1.204266 -1.000430 2.999690 38.454424 0.184590 -2.474667 0.706508 -0.309000 0.000000 -74.068600 7.429258 -0.281518 1.359917 11.231582 3.382187 -31.230496 2.683700 -1.315144 23.447504 0.960543 6.015257 5.059892 0.842000 -0.000001 -53.819600
-1.938488 16.656141 -2.396087 -157.594017 78.061214 -151.489206 -13.386929 4.580886 -0.494785 -4.820433 6.890623 -2.361428 -0.781492 3.209530 41.291967 0.218739 -2.925771 2.388250 -0.479200 0.000000 -75.685700 7.321637 -0.358064 1.078591 12.068981 2.609572 -31.369955 2.641885 -1.479033 25.614287 0.910892 5.970667 3.725336 0.740901 0.000000 -53.076100
-1.810538 16.614094 -2.427424 -156.323535 77.454940 -150.600879 -13.695838 4.566074 -0.754758 -3.515381 8.293918 -3.555133 -0.556291 3.416615 44.183750 0.284067 -3.220633 4.102639 -0.664800 -0.000000 -75.905700 7.205897 -0.438703 0.791247 12.910837 1.842714 -31.376452 2.611938 -1.621425 27.605505 0.848779 5.850490 2.302977 0.622200 -0.000000 -52.394300
-1.688316 16.571758 -2.457298 -155.164459 76.798605 -149.840667 -13.992260 4.510415 -1.038639 -2.180600 9.691203 -4.773065 -0.330675 3.622618 47.109982 0.380678 -3.260128 5.743380 -0.826100 0.000000 -74.744800 7.080540 -0.524184 0.510141 13.742703 1.138871 -31.243377 2.591211 -1.742900 29.395877 0.773530 5.645613 0.853144 0.495600 0.000001 -51.758300
-1.571417 16.529450 -2.485868 -154.091784 76.101275 -149.172605 -14.274141 4.410399 -1.343769 -0.830404 11.058007 -6.016165 -0.109068 3.831066 50.060948 0.504470 -2.959366 7.183256 -0.912000 0.000001 -72.150600 6.941466 -0.615604 0.248282 14.561607 0.554700 -30.972601 2.577448 -1.844071 30.966070 0.683403 5.336695 -0.571798 0.368900 -0.000001 -51.151900
-1.459336 16.487672 -2.513287 -153.098919 75.369602 -148.579557 -14.538364 4.265332 -1.665324 0.514232 12.367572 -7.285838 0.106028 4.046223 53.022217 0.649174 -2.256051 8.291199 -0.873400 0.000000 -68.160999 6.787114 -0.712135 0.015461 15.364263 0.131313 -30.574180 2.567828 -1.926325 32.310357 0.576272 4.905166 -1.933127 0.249601 0.000000 -50.559200
-1.351528 16.447204 -2.539099 -152.251612 74.613463 -148.120994 -14.772916 4.079338 -1.995834 1.800585 13.582084 -8.570996 0.314702 4.269831 55.956941 0.811257 -1.105525 8.984881 -0.677900 -0.000000 -63.261500 6.628570 -0.807375 -0.186379 16.122478 -0.128069 -30.068390 2.557282 -1.992618 33.449215 0.451426 4.352317 -3.213970 0.145800 0.000000 -49.962600
-1.247361 16.408687 -2.564289 -151.493193 73.825142 -147.726594 -14.985490 3.854343 -2.325841 3.036167 14.686983 -9.897976 0.518850 4.505231 58.859821 0.984276 0.453545 9.156257 -0.332800 -0.000000 -57.290600 6.455996 -0.903768 -0.349144 16.863137 -0.195302 -29.473114 2.546553 -2.043627 34.378286 0.304816 3.647738 -4.392922 0.060200 0.000000 -49.362201
-1.146237 16.373141 -2.588344 -150.911819 73.010060 -147.481123 -15.163452 3.599771 -2.643537 4.158746 15.641532 -11.256886 0.720280 4.748659 61.680166 1.168943 2.374521 8.808505 0.122500 0.000000 -50.951100 6.286272 -0.993387 -0.479278 17.551984 -0.111454 -28.818184 2.531482 -2.082601 35.134598 0.137177 2.812136 -5.477371 -0.001900 0.000000 -48.754199
-1.047589 16.341459 -2.611844 -150.499558 72.160894 -147.369666 -15.309332 3.323069 -2.936574 5.154847 16.425541 -12.662030 0.919756 4.996543 64.389643 1.363038 4.542319 7.945738 0.613901 0.000000 -44.429200 6.120090 -1.076156 -0.579218 18.195947 0.097129 -28.125601 2.512567 -2.110686 35.731563 -0.052098 1.849854 -6.467215 -0.039500 -0.000000 -48.154300
-0.950942 16.314575 -2.635007 -150.277893 71.274025 -147.411444 -15.421724 3.033948 -3.193329 5.999017 17.018029 -14.117470 1.116166 5.242026 66.950627 1.564918 6.826633 6.632920 1.057900 0.000000 -38.092400 5.964766 -1.150412 -0.657069 18.787009 0.377157 -27.417312 2.489965 -2.129223 36.189804 -0.260507 0.788329 -7.371061 -0.051900 0.000000 -47.580700
-0.855821 16.293287 -2.658109 -150.257550 70.346110 -147.616596 -15.500816 2.742507 -3.403838 6.674617 17.408167 -15.625656 1.306474 5.477199 69.329394 1.770227 9.088897 4.961164 1.380400 0.000000 -32.194000 5.826804 -1.216378 -0.722258 19.318846 0.666125 -26.708487 2.464929 -2.138890 36.523540 -0.483121 -0.334482 -8.196522 -0.040200 -0.000001 -47.056200
-0.761944 16.278270 -2.681566 -150.433294 69.374125 -147.983251 -15.548143 2.457794 -3.561298 7.173283 17.597041 -17.184856 1.486092 5.694006 71.496014 1.971302 11.199225 3.032876 1.531600 -0.000000 -26.868000 5.711398 -1.275799 -0.784938 19.785576 0.898660 -26.006650 2.439854 -2.139944 36.740295 -0.712574 -1.472267 -8.950143 -0.006600 0.000000 -46.601500
-0.668997 16.269947 -2.705792 -150.787991 68.357821 -148.499103 -15.566290 2.187033 -3.662727 7.498650 17.599227 -18.787471 1.649207 5.885352 73.424087 2.157598 13.046303 0.950691 1.493400 0.000000 -22.149100 5.621185 -1.331677 -0.854346 20.185413 1.016351 -25.310023 2.418132 -2.132077 36.837165 -0.940027 -2.577537 -9.634691 0.045300 -0.000000 -46.232400
-0.576788 16.268581 -2.731089 -151.306273 67.301830 -149.157194 -15.556120 1.936363 -3.709235 7.653662 17.437584 -20.415437 1.789095 6.044719 75.087598 2.317665 14.547911 -1.188828 1.279900 0.000001 -18.019500 5.560038 -1.386539 -0.939625 20.509319 0.965466 -24.608846 2.403010 -2.115014 36.808346 -1.155096 -3.599856 -10.251867 0.111200 0.000000 -45.955000
-0.485054 16.274253 -2.757614 -151.958608 66.213082 -149.937755 -15.519780 1.709057 -3.704935 7.654884 17.145856 -22.045967 1.899088 6.167582 76.464293 2.440584 15.648447 -3.298102 0.931000 0.000000 -14.450800 5.527229 -1.443736 -1.045489 20.757900 0.716032 -23.883780 2.398235 -2.087949 36.636537 -1.348951 -4.502444 -10.797614 0.185200 0.000000 -45.768700
-0.393505 16.286733 -2.785874 -152.700900 65.100476 -150.802597 -15.461028 1.504462 -3.657900 7.525297 16.764282 -23.655821 1.973345 6.252041 77.536021 2.517953 16.321768 -5.302784 0.502300 0.000000 -11.412300 5.517754 -1.505743 -1.173960 20.936060 0.262969 -23.114048 2.407525 -2.049881 36.299490 -1.515199 -5.263234 -11.264162 0.260400 0.000000 -45.664600
-0.301778 16.305757 -2.815713 -153.513947 63.978097 -151.741963 -15.379502 1.323214 -3.577137 7.277848 16.331050 -25.213447 2.007366 6.296525 78.287521 2.546137 16.577922 -7.138777 0.055300 -0.000000 -8.904400 5.531137 -1.572897 -1.324226 21.037755 -0.389012 -22.276660 2.432263 -2.000046 35.781310 -1.648989 -5.867700 -11.644622 0.330200 0.000000 -45.625901
-0.209510 16.330818 -2.847146 -154.367362 62.859757 -152.731243 -15.276677 1.163207 -3.472438 6.930430 15.885880 -26.694035 1.999083 6.301708 78.711396 2.526565 16.456681 -8.758609 -0.356400 -0.000000 -6.926600 5.563081 -1.644867 -1.490670 21.064473 -1.208939 -21.351731 2.472945 -1.937335 35.065309 -1.749563 -6.321747 -11.929062 0.388400 0.000000 -45.632500
-0.116180 16.361415 -2.880092 -155.241769 61.761306 -153.752560 -15.153055 1.022078 -3.353599 6.495089 15.465089 -28.077961 1.948751 6.269480 78.807093 2.466283 16.028107 -10.132718 -0.695701 0.000000 -5.473900 5.610462 -1.719430 -1.665045 21.015257 -2.152139 -20.326316 2.527926 -1.860598 34.142751 -1.819129 -6.644176 -12.109176 0.429800 0.000000 -45.662600
-0.021248 16.396907 -2.914372 -156.124430 60.698947 -154.791407 -15.008672 0.897349 -3.229391 5.978311 15.100891 -29.353415 1.858839 6.202578 78.581958 2.377251 15.386628 -11.253726 -0.946900 -0.000000 -4.517300 5.671212 -1.793381 -1.836600 20.888580 -3.163773 -19.195582 2.593656 -1.768804 33.014248 -1.862507 -6.864734 -12.179598 0.451500 0.000001 -45.695800
0.075929 16.436749 -2.949833 -157.011423 59.688461 -155.834782 -14.843093 0.785867 -3.108206 5.380479 14.820455 -30.519472 1.733097 6.104575 78.048962 2.274788 14.641601 -12.137806 -1.115100 -0.000000 -3.987900 5.744262 -1.862534 -1.994252 20.683295 -4.183086 -17.966071 2.665014 -1.661226 31.689636 -1.886464 -7.020931 -12.138072 0.452100 0.000000 -45.716800
